<mxfile host="65bd71144e">
    <diagram id="pIaEtrtLPv3HG8r1JEND" name="Page-1">
        <mxGraphModel dx="520" dy="429" grid="1" gridSize="10" guides="1" tooltips="1" connect="1" arrows="1" fold="1" page="1" pageScale="1" pageWidth="850" pageHeight="1100" math="0" shadow="0">
            <root>
                <mxCell id="0"/>
                <mxCell id="1" parent="0"/>
                <mxCell id="2" value="" style="rounded=0;whiteSpace=wrap;html=1;" parent="1" vertex="1">
                    <mxGeometry x="80" y="80" width="400" height="300" as="geometry"/>
                </mxCell>
                <mxCell id="3" value="&lt;span style=&quot;color: rgb(255 , 255 , 255) ; font-family: &amp;#34;roboto&amp;#34; , &amp;#34;helvetica&amp;#34; , &amp;#34;arial&amp;#34; , sans-serif ; font-size: 20px ; letter-spacing: 0.4px&quot;&gt;My first Radio Button Program!&lt;/span&gt;" style="rounded=0;whiteSpace=wrap;html=1;" parent="1" vertex="1">
                    <mxGeometry x="80" y="80" width="400" height="40" as="geometry"/>
                </mxCell>
                <mxCell id="6" value="Show Value" style="labelPosition=center;verticalLabelPosition=middle;align=center;html=1;shape=mxgraph.basic.button;dx=10;" parent="1" vertex="1">
                    <mxGeometry x="90" y="200" width="100" height="40" as="geometry"/>
                </mxCell>
                <mxCell id="7" value="?" style="text;html=1;strokeColor=none;fillColor=none;align=center;verticalAlign=middle;whiteSpace=wrap;rounded=0;" vertex="1" parent="1">
                    <mxGeometry x="80" y="130" width="60" height="30" as="geometry"/>
                </mxCell>
                <mxCell id="8" value="Choose a mode!" style="text;html=1;strokeColor=none;fillColor=none;align=center;verticalAlign=middle;whiteSpace=wrap;rounded=0;" vertex="1" parent="1">
                    <mxGeometry x="100" y="150" width="100" height="30" as="geometry"/>
                </mxCell>
                <mxCell id="12" value="" style="dashed=0;labelPosition=right;align=left;shape=mxgraph.gmdl.radiobutton;strokeColor=#B0B0B0;fillColor=#B0B0B0;strokeWidth=2;aspect=fixed;sketch=0;labelBackgroundColor=none;" vertex="1" parent="1">
                    <mxGeometry x="105" y="180" width="10" height="10" as="geometry"/>
                </mxCell>
                <mxCell id="13" value="+" style="text;html=1;strokeColor=none;fillColor=none;align=center;verticalAlign=middle;whiteSpace=wrap;rounded=0;" vertex="1" parent="1">
                    <mxGeometry x="90" y="170" width="60" height="30" as="geometry"/>
                </mxCell>
                <mxCell id="14" value="-" style="text;html=1;strokeColor=none;fillColor=none;align=center;verticalAlign=middle;whiteSpace=wrap;rounded=0;" vertex="1" parent="1">
                    <mxGeometry x="135" y="170" width="60" height="30" as="geometry"/>
                </mxCell>
                <mxCell id="15" value="" style="dashed=0;labelPosition=right;align=left;shape=mxgraph.gmdl.radiobutton;strokeColor=#B0B0B0;fillColor=#B0B0B0;strokeWidth=2;aspect=fixed;sketch=0;labelBackgroundColor=none;" vertex="1" parent="1">
                    <mxGeometry x="150" y="180" width="10" height="10" as="geometry"/>
                </mxCell>
                <mxCell id="16" value="" style="sketch=0;outlineConnect=0;fontColor=#232F3E;gradientColor=none;fillColor=#D45B07;strokeColor=none;dashed=0;verticalLabelPosition=bottom;verticalAlign=top;align=center;html=1;fontSize=12;fontStyle=0;aspect=fixed;pointerEvents=1;shape=mxgraph.aws4.container_registry_image;labelBackgroundColor=none;" vertex="1" parent="1">
                    <mxGeometry x="370" y="140" width="90" height="90" as="geometry"/>
                </mxCell>
            </root>
        </mxGraphModel>
    </diagram>
    <diagram name="Copy of Page-1" id="smQuuA4y0KVwoTeHR5d6">
        <mxGraphModel dx="520" dy="429" grid="1" gridSize="10" guides="1" tooltips="1" connect="1" arrows="1" fold="1" page="1" pageScale="1" pageWidth="850" pageHeight="1100" math="0" shadow="0">
            <root>
                <mxCell id="5aim2bk8j_bkLxRzWk4A-0"/>
                <mxCell id="5aim2bk8j_bkLxRzWk4A-1" parent="5aim2bk8j_bkLxRzWk4A-0"/>
                <mxCell id="5aim2bk8j_bkLxRzWk4A-2" value="" style="rounded=0;whiteSpace=wrap;html=1;" vertex="1" parent="5aim2bk8j_bkLxRzWk4A-1">
                    <mxGeometry x="80" y="80" width="400" height="300" as="geometry"/>
                </mxCell>
                <mxCell id="5aim2bk8j_bkLxRzWk4A-3" value="&lt;span style=&quot;color: rgb(255 , 255 , 255) ; font-family: &amp;#34;roboto&amp;#34; , &amp;#34;helvetica&amp;#34; , &amp;#34;arial&amp;#34; , sans-serif ; font-size: 20px ; letter-spacing: 0.4px&quot;&gt;My first Radio Button Program!&lt;/span&gt;" style="rounded=0;whiteSpace=wrap;html=1;" vertex="1" parent="5aim2bk8j_bkLxRzWk4A-1">
                    <mxGeometry x="80" y="80" width="400" height="40" as="geometry"/>
                </mxCell>
                <mxCell id="5aim2bk8j_bkLxRzWk4A-4" value="Show Value" style="labelPosition=center;verticalLabelPosition=middle;align=center;html=1;shape=mxgraph.basic.button;dx=10;" vertex="1" parent="5aim2bk8j_bkLxRzWk4A-1">
                    <mxGeometry x="90" y="200" width="100" height="40" as="geometry"/>
                </mxCell>
                <mxCell id="5aim2bk8j_bkLxRzWk4A-5" value="The value is : 3" style="text;html=1;strokeColor=none;fillColor=none;align=center;verticalAlign=middle;whiteSpace=wrap;rounded=0;" vertex="1" parent="5aim2bk8j_bkLxRzWk4A-1">
                    <mxGeometry x="80" y="130" width="100" height="30" as="geometry"/>
                </mxCell>
                <mxCell id="5aim2bk8j_bkLxRzWk4A-6" value="Choose a mode!" style="text;html=1;strokeColor=none;fillColor=none;align=center;verticalAlign=middle;whiteSpace=wrap;rounded=0;" vertex="1" parent="5aim2bk8j_bkLxRzWk4A-1">
                    <mxGeometry x="100" y="150" width="100" height="30" as="geometry"/>
                </mxCell>
                <mxCell id="5aim2bk8j_bkLxRzWk4A-7" value="" style="dashed=0;labelPosition=right;align=left;shape=mxgraph.gmdl.radiobutton;strokeColor=#B0B0B0;fillColor=#B0B0B0;strokeWidth=2;aspect=fixed;sketch=0;labelBackgroundColor=none;" vertex="1" parent="5aim2bk8j_bkLxRzWk4A-1">
                    <mxGeometry x="105" y="180" width="10" height="10" as="geometry"/>
                </mxCell>
                <mxCell id="5aim2bk8j_bkLxRzWk4A-8" value="+" style="text;html=1;strokeColor=none;fillColor=none;align=center;verticalAlign=middle;whiteSpace=wrap;rounded=0;" vertex="1" parent="5aim2bk8j_bkLxRzWk4A-1">
                    <mxGeometry x="90" y="170" width="60" height="30" as="geometry"/>
                </mxCell>
                <mxCell id="5aim2bk8j_bkLxRzWk4A-9" value="-" style="text;html=1;strokeColor=none;fillColor=none;align=center;verticalAlign=middle;whiteSpace=wrap;rounded=0;" vertex="1" parent="5aim2bk8j_bkLxRzWk4A-1">
                    <mxGeometry x="135" y="170" width="60" height="30" as="geometry"/>
                </mxCell>
                <mxCell id="5aim2bk8j_bkLxRzWk4A-10" value="" style="dashed=0;labelPosition=right;align=left;shape=mxgraph.gmdl.radiobutton;strokeColor=#B0B0B0;fillColor=#B0B0B0;strokeWidth=2;aspect=fixed;sketch=0;labelBackgroundColor=none;" vertex="1" parent="5aim2bk8j_bkLxRzWk4A-1">
                    <mxGeometry x="150" y="180" width="10" height="10" as="geometry"/>
                </mxCell>
                <mxCell id="5aim2bk8j_bkLxRzWk4A-11" value="" style="sketch=0;outlineConnect=0;fontColor=#232F3E;gradientColor=none;fillColor=#D45B07;strokeColor=none;dashed=0;verticalLabelPosition=bottom;verticalAlign=top;align=center;html=1;fontSize=12;fontStyle=0;aspect=fixed;pointerEvents=1;shape=mxgraph.aws4.container_registry_image;labelBackgroundColor=none;" vertex="1" parent="5aim2bk8j_bkLxRzWk4A-1">
                    <mxGeometry x="370" y="140" width="90" height="90" as="geometry"/>
                </mxCell>
                <mxCell id="t9ZkXriHFIluN_Wg1F6Y-0" value="" style="dashed=0;labelPosition=right;align=left;shape=mxgraph.gmdl.radiobutton;strokeColor=#009587;fillColor=#009587;strokeWidth=2;aspect=fixed;sketch=0;labelBackgroundColor=none;" vertex="1" parent="5aim2bk8j_bkLxRzWk4A-1">
                    <mxGeometry x="105" y="180" width="10" height="10" as="geometry"/>
                </mxCell>
            </root>
        </mxGraphModel>
    </diagram>
    <diagram name="Copy of Copy of Page-1" id="ysKtkalav7jQJvF_yIqB">
        <mxGraphModel dx="520" dy="429" grid="1" gridSize="10" guides="1" tooltips="1" connect="1" arrows="1" fold="1" page="1" pageScale="1" pageWidth="850" pageHeight="1100" math="0" shadow="0">
            <root>
                <mxCell id="fFqEK55eSmg7iBxKdfhN-0"/>
                <mxCell id="fFqEK55eSmg7iBxKdfhN-1" parent="fFqEK55eSmg7iBxKdfhN-0"/>
                <mxCell id="fFqEK55eSmg7iBxKdfhN-2" value="" style="rounded=0;whiteSpace=wrap;html=1;" vertex="1" parent="fFqEK55eSmg7iBxKdfhN-1">
                    <mxGeometry x="80" y="80" width="400" height="300" as="geometry"/>
                </mxCell>
                <mxCell id="fFqEK55eSmg7iBxKdfhN-3" value="&lt;span style=&quot;color: rgb(255 , 255 , 255) ; font-family: &amp;#34;roboto&amp;#34; , &amp;#34;helvetica&amp;#34; , &amp;#34;arial&amp;#34; , sans-serif ; font-size: 20px ; letter-spacing: 0.4px&quot;&gt;My first Radio Button Program!&lt;/span&gt;" style="rounded=0;whiteSpace=wrap;html=1;" vertex="1" parent="fFqEK55eSmg7iBxKdfhN-1">
                    <mxGeometry x="80" y="80" width="400" height="40" as="geometry"/>
                </mxCell>
                <mxCell id="fFqEK55eSmg7iBxKdfhN-4" value="Show Value" style="labelPosition=center;verticalLabelPosition=middle;align=center;html=1;shape=mxgraph.basic.button;dx=10;" vertex="1" parent="fFqEK55eSmg7iBxKdfhN-1">
                    <mxGeometry x="90" y="200" width="100" height="40" as="geometry"/>
                </mxCell>
                <mxCell id="fFqEK55eSmg7iBxKdfhN-5" value="The value is : -5" style="text;html=1;strokeColor=none;fillColor=none;align=center;verticalAlign=middle;whiteSpace=wrap;rounded=0;" vertex="1" parent="fFqEK55eSmg7iBxKdfhN-1">
                    <mxGeometry x="86" y="130" width="100" height="30" as="geometry"/>
                </mxCell>
                <mxCell id="fFqEK55eSmg7iBxKdfhN-6" value="Choose a mode!" style="text;html=1;strokeColor=none;fillColor=none;align=center;verticalAlign=middle;whiteSpace=wrap;rounded=0;" vertex="1" parent="fFqEK55eSmg7iBxKdfhN-1">
                    <mxGeometry x="100" y="150" width="100" height="30" as="geometry"/>
                </mxCell>
                <mxCell id="fFqEK55eSmg7iBxKdfhN-7" value="" style="dashed=0;labelPosition=right;align=left;shape=mxgraph.gmdl.radiobutton;strokeColor=#B0B0B0;fillColor=#B0B0B0;strokeWidth=2;aspect=fixed;sketch=0;labelBackgroundColor=none;" vertex="1" parent="fFqEK55eSmg7iBxKdfhN-1">
                    <mxGeometry x="105" y="180" width="10" height="10" as="geometry"/>
                </mxCell>
                <mxCell id="fFqEK55eSmg7iBxKdfhN-8" value="+" style="text;html=1;strokeColor=none;fillColor=none;align=center;verticalAlign=middle;whiteSpace=wrap;rounded=0;" vertex="1" parent="fFqEK55eSmg7iBxKdfhN-1">
                    <mxGeometry x="90" y="170" width="60" height="30" as="geometry"/>
                </mxCell>
                <mxCell id="fFqEK55eSmg7iBxKdfhN-9" value="-" style="text;html=1;strokeColor=none;fillColor=none;align=center;verticalAlign=middle;whiteSpace=wrap;rounded=0;" vertex="1" parent="fFqEK55eSmg7iBxKdfhN-1">
                    <mxGeometry x="135" y="170" width="60" height="30" as="geometry"/>
                </mxCell>
                <mxCell id="fFqEK55eSmg7iBxKdfhN-10" value="" style="dashed=0;labelPosition=right;align=left;shape=mxgraph.gmdl.radiobutton;strokeColor=#B0B0B0;fillColor=#B0B0B0;strokeWidth=2;aspect=fixed;sketch=0;labelBackgroundColor=none;" vertex="1" parent="fFqEK55eSmg7iBxKdfhN-1">
                    <mxGeometry x="150" y="180" width="10" height="10" as="geometry"/>
                </mxCell>
                <mxCell id="fFqEK55eSmg7iBxKdfhN-11" value="" style="sketch=0;outlineConnect=0;fontColor=#232F3E;gradientColor=none;fillColor=#D45B07;strokeColor=none;dashed=0;verticalLabelPosition=bottom;verticalAlign=top;align=center;html=1;fontSize=12;fontStyle=0;aspect=fixed;pointerEvents=1;shape=mxgraph.aws4.container_registry_image;labelBackgroundColor=none;" vertex="1" parent="fFqEK55eSmg7iBxKdfhN-1">
                    <mxGeometry x="370" y="140" width="90" height="90" as="geometry"/>
                </mxCell>
                <mxCell id="fFqEK55eSmg7iBxKdfhN-12" value="" style="dashed=0;labelPosition=right;align=left;shape=mxgraph.gmdl.radiobutton;strokeColor=#009587;fillColor=#009587;strokeWidth=2;aspect=fixed;sketch=0;labelBackgroundColor=none;" vertex="1" parent="fFqEK55eSmg7iBxKdfhN-1">
                    <mxGeometry x="150" y="180" width="10" height="10" as="geometry"/>
                </mxCell>
            </root>
        </mxGraphModel>
    </diagram>
</mxfile>